<?xml version="1.0" encoding="UTF-8" standalone="no"?>
<!-- Created with Inkscape (http://www.inkscape.org/) -->

<svg
   version="1.1"
   id="svg1"
   width="1000"
   height="991"
   viewBox="0 0 1000 991"
   sodipodi:docname="ORI.svg"
   inkscape:version="1.4 (e7c3feb100, 2024-10-09)"
   xml:space="preserve"
   xmlns:inkscape="http://www.inkscape.org/namespaces/inkscape"
   xmlns:sodipodi="http://sodipodi.sourceforge.net/DTD/sodipodi-0.dtd"
   xmlns="http://www.w3.org/2000/svg"
   xmlns:svg="http://www.w3.org/2000/svg"><defs
     id="defs1" /><sodipodi:namedview
     id="namedview1"
     pagecolor="#ffffff"
     bordercolor="#000000"
     borderopacity="0.25"
     inkscape:showpageshadow="2"
     inkscape:pageopacity="0.0"
     inkscape:pagecheckerboard="0"
     inkscape:deskcolor="#d1d1d1"
     inkscape:zoom="0.60221809"
     inkscape:cx="240.77656"
     inkscape:cy="587.82691"
     inkscape:window-width="1920"
     inkscape:window-height="1052"
     inkscape:window-x="0"
     inkscape:window-y="0"
     inkscape:window-maximized="1"
     inkscape:current-layer="layer1"
     showguides="true"
     inkscape:export-bgcolor="#ffffff00"><sodipodi:guide
       position="501.47946,323.46774"
       orientation="1,0"
       id="guide6"
       inkscape:locked="false" /><sodipodi:guide
       position="290.5924,489.52054"
       orientation="0,-1"
       id="guide7"
       inkscape:locked="false" /></sodipodi:namedview><g
     inkscape:groupmode="layer"
     inkscape:label="Image"
     id="g1"
     style="display:inline" /><g
     inkscape:groupmode="layer"
     id="layer3"
     inkscape:label="Background"
     transform="translate(7.9574201e-6,-1.326958e-5)"
     style="display:inline"><circle
       style="display:inline;fill:#000000;fill-opacity:1;stroke:none;stroke-opacity:1"
       id="path7"
       cx="501.47946"
       cy="503.13998"
       r="478.23206" /></g><g
     inkscape:groupmode="layer"
     id="layer1"
     inkscape:label="Star Overlay"
     style="display:inline;fill:#ffffff"
     inkscape:highlight-color="#3beea4"
     transform="matrix(4.6935222,0,0,4.6935222,-3846.4833,-1291.986)"><circle
       style="display:inline;fill:#ffffff;stroke:#ffffff;stroke-width:1.09742"
       id="path14"
       cx="461.44907"
       cy="765.85278"
       r="7.4092269"
       transform="matrix(0.30362721,0,0,0.30362721,769.5976,228.83742)" /><circle
       style="display:inline;fill:#ffffff;stroke:#ffffff;stroke-width:2.00578"
       id="path14-2"
       cx="605.95795"
       cy="741.07739"
       r="13.542128"
       transform="matrix(0.30362721,0,0,0.30362721,769.5976,228.83742)" /><circle
       style="display:inline;fill:#ffffff;stroke:#ffffff;stroke-width:1.17838"
       id="path14-5"
       cx="492.81119"
       cy="634.10474"
       r="7.9558311"
       transform="matrix(0.30362721,0,0,0.30362721,769.5976,228.83742)" /><circle
       style="display:inline;fill:#ffffff;stroke:#ffffff;stroke-width:1.19862"
       id="path14-8"
       cx="512.25153"
       cy="621.37079"
       r="8.0924826"
       transform="matrix(0.30362721,0,0,0.30362721,769.5976,228.83742)" /><circle
       style="display:inline;fill:#ffffff;stroke:#ffffff;stroke-width:1.0115"
       id="path14-0"
       cx="530.59479"
       cy="606.11359"
       r="6.8294635"
       transform="matrix(0.30362721,0,0,0.30362721,769.5976,228.83742)" /><circle
       style="display:inline;fill:#ffffff;stroke:#ffffff;stroke-width:0.698024"
       id="path14-1"
       cx="562.56885"
       cy="641.95795"
       r="4.7127066"
       transform="matrix(0.30362721,0,0,0.30362721,769.5976,228.83742)" /><circle
       style="display:inline;fill:#ffffff;stroke:#ffffff;stroke-width:1.2391"
       id="path14-06"
       cx="559.57263"
       cy="492.8385"
       r="8.3657846"
       transform="matrix(0.30362721,0,0,0.30362721,769.5976,228.83742)" /><circle
       style="display:inline;fill:#ffffff;stroke:#ffffff;stroke-width:1.83118"
       id="path14-86"
       cx="432.37091"
       cy="474.10471"
       r="12.363283"
       transform="matrix(0.30362721,0,0,0.30362721,769.5976,228.83742)" /><circle
       style="display:inline;fill:#ffffff;stroke:#ffffff;stroke-width:0.54581"
       id="path14-24"
       cx="402.51697"
       cy="435.77637"
       r="3.6850314"
       transform="matrix(0.30362721,0,0,0.30362721,769.5976,228.83742)" /><circle
       style="display:inline;fill:#ffffff;stroke:#ffffff;stroke-width:0.486623"
       id="path14-9"
       cx="363.49103"
       cy="357.54291"
       r="3.2854326"
       transform="matrix(0.30362721,0,0,0.30362721,769.5976,228.83742)" /><circle
       style="display:inline;fill:#ffffff;stroke:#ffffff;stroke-width:0.506863"
       id="path14-9-1"
       cx="381.90515"
       cy="348.34534"
       r="3.4220836"
       transform="matrix(0.30362721,0,0,0.30362721,769.5976,228.83742)" /><circle
       style="display:inline;fill:#ffffff;stroke:#ffffff;stroke-width:0.461324"
       id="path14-9-0"
       cx="398.27197"
       cy="256.71216"
       r="3.1146188"
       transform="matrix(0.30362721,0,0,0.30362721,769.5976,228.83742)" /><circle
       style="display:inline;fill:#ffffff;stroke:#ffffff;stroke-width:0.461324"
       id="path14-9-0-0"
       cx="437.95618"
       cy="254.9043"
       r="3.1146188"
       transform="matrix(0.30362721,0,0,0.30362721,769.5976,228.83742)" /><circle
       style="display:inline;fill:#ffffff;stroke:#ffffff;stroke-width:0.694194"
       id="path14-9-0-00"
       cx="517.34528"
       cy="431.7746"
       r="4.6868339"
       transform="matrix(0.30362721,0,0,0.30362721,769.5976,228.83742)" /><circle
       style="display:inline;fill:#ffffff;stroke:#ffffff;stroke-width:0.481564"
       id="path14-9-0-7"
       cx="673.22565"
       cy="571.07892"
       r="3.2512698"
       transform="matrix(0.30362721,0,0,0.30362721,769.5976,228.83742)" /><circle
       style="display:inline;fill:#ffffff;stroke:#ffffff;stroke-width:0.609347"
       id="path14-9-0-7-7"
       cx="691.34534"
       cy="558.34534"
       r="4.1139927"
       transform="matrix(0.30362721,0,0,0.30362721,769.5976,228.83742)" /><circle
       style="display:inline;fill:#ffffff;stroke:#ffffff;stroke-width:0.639707"
       id="path14-9-0-7-9"
       cx="703.63879"
       cy="504.27185"
       r="4.3189692"
       transform="matrix(0.30362721,0,0,0.30362721,769.5976,228.83742)" /><circle
       style="display:inline;fill:#ffffff;stroke:#ffffff;stroke-width:0.728746"
       id="path14-9-0-7-6"
       cx="709.18079"
       cy="481.18076"
       r="4.9201121"
       transform="matrix(0.30362721,0,0,0.30362721,769.5976,228.83742)" /><circle
       style="display:inline;fill:#ffffff;stroke:#ffffff;stroke-width:0.52378"
       id="path14-9-0-7-6-5"
       cx="705.47748"
       cy="448.0643"
       r="3.5362935"
       transform="matrix(0.30362721,0,0,0.30362721,769.5976,228.83742)" /><circle
       style="display:inline;fill:#ffffff;stroke:#ffffff;stroke-width:0.4833"
       id="path14-9-0-7-6-5-9"
       cx="686.90826"
       cy="426.89865"
       r="3.2629914"
       transform="matrix(0.30362721,0,0,0.30362721,769.5976,228.83742)" /><circle
       style="display:inline;fill:#ffffff;stroke:#ffffff;stroke-width:0.522658"
       id="path14-9-0-7-6-5-9-8"
       cx="679.74976"
       cy="369.90802"
       r="3.5287163"
       transform="matrix(0.30362721,0,0,0.30362721,769.5976,228.83742)" /><circle
       style="display:inline;fill:#ffffff;stroke:#ffffff;stroke-width:0.399067"
       id="path14-9-0-7-6-5-9-8-0"
       cx="645.22009"
       cy="337.97162"
       r="2.694294"
       transform="matrix(0.30362721,0,0,0.30362721,769.5976,228.83742)" /></g><g
     inkscape:groupmode="layer"
     id="layer4"
     inkscape:label="Line Overlay"
     style="display:inline"
     transform="matrix(1.4250856,0,0,1.4250856,-234.36023,-217.93308)"><path
       style="fill:none;stroke:#ffffff"
       d="m 381.92144,349.12601 57.28822,-93.81983 -40.68294,1.2454 -35.28622,101.70734 z"
       id="path15" /><path
       style="fill:none;stroke:#ffffff"
       d="m 363.4058,357.53495 c 0,0 37.42669,77.34849 37.72023,78.08235 0.29355,0.73385 30.61125,37.42561 30.61125,37.42561 l 85.77842,-40.36104 41.9766,61.05687 -27.59301,111.54621 31.11552,37.57346 44.0314,100.39159"
       id="path16" /><path
       style="fill:none;stroke:#ffffff"
       d="m 558.90521,494.32583 -123.28791,-20.54799 57.53436,161.44846 19.9609,-14.09005 17.61256,-13.50296"
       id="path17" /><path
       style="fill:none;stroke:#ffffff"
       d="M 462.03613,767.90758 491.3904,634.63921"
       id="path18" /><path
       style="fill:none;stroke:#ffffff"
       d="m 645.3227,337.91745 34.55973,31.96516 6.84968,57.08065 18.79766,21.27637 3.96282,32.73001"
       id="path20" /><path
       style="fill:none;stroke:#ffffff"
       d="m 560.37292,492.56457 149.11967,-11.15462 -5.87085,23.18987 -12.32879,54.01185 -18.19965,12.32879"
       id="path19" /></g></svg>
